<svg width="20" height="12" viewBox="0 0 20 12" fill="none" xmlns="http://www.w3.org/2000/svg">
<path d="M19.6339 6.88385L15.2051 11.3127C14.961 11.5568 14.6411 11.6788 14.3212 11.6788C14.0013 11.6788 13.6814 11.5568 13.4373 11.3127C12.9491 10.8245 12.9491 10.0331 13.4373 9.54491L15.7322 7.24998H1.25C0.559648 7.24998 0 6.69034 0 5.99999C0 5.30963 0.559648 4.74999 1.25 4.74999H15.7322L13.4373 2.45506C12.9491 1.9669 12.9491 1.17545 13.4373 0.68729C13.9255 0.199126 14.7169 0.199126 15.2051 0.68729L19.6339 5.11612C20.122 5.60424 20.122 6.39573 19.6339 6.88385Z" fill="#FF5F00"/>
</svg>
