<svg width="60" height="58" viewBox="0 0 60 58" fill="none" xmlns="http://www.w3.org/2000/svg">
<path d="M47.6456 21.195C47.2387 21.1331 46.8269 21.2362 46.4956 21.4775C44.8831 22.6525 43.0112 23.3456 41.0337 23.5119C41.2281 23.0375 41.3844 22.545 41.5175 22.0425C46.8812 21.3419 51.06 16.7187 51.06 11.1931C51.06 5.15372 46.1437 0.240601 40.1012 0.240601C35.6419 0.240601 31.6525 2.9756 29.9856 7.02122C29.9744 7.02122 29.9637 7.01935 29.9531 7.01935C29.9469 7.01935 29.9406 7.0206 29.9337 7.0206C28.2619 2.9756 24.2675 0.240601 19.8075 0.240601C13.7681 0.240601 8.855 5.15372 8.855 11.1931C8.855 16.7169 13.03 21.34 18.3881 22.0419C18.5206 22.5443 18.6775 23.0368 18.8719 23.5112C16.8956 23.3431 15.02 22.6462 13.4019 21.4656C13.0756 21.2275 12.6687 21.1256 12.2694 21.1793C5.00625 22.1706 -0.112501 28.2043 0.340624 35.2268V40.295C0.340624 40.5837 0.420624 40.8668 0.571874 41.1131C1.70125 42.9506 4.37625 44.3312 8.52187 45.2268C8.52687 45.3612 8.52937 45.495 8.53812 45.63V51.2512C8.53812 51.5406 8.61812 51.8244 8.77062 52.0706C11.5444 56.5737 22.4469 57.7531 30.2644 57.7531C31.3887 57.7531 32.4506 57.7287 33.4137 57.6862C38.0381 57.4819 49.0406 56.515 51.3244 51.95C51.4331 51.7331 51.4894 51.4937 51.4894 51.2506V45.5781C51.4894 45.4769 51.4775 45.3781 51.4756 45.2775C55.8437 44.3637 58.5519 42.9268 59.5212 40.995C59.6306 40.7775 59.6875 40.5375 59.6875 40.2943V35.175C59.6875 28.2256 54.5106 22.2156 47.6456 21.195ZM21.1056 18.9931C21.1056 14.1143 25.0744 10.145 29.9537 10.145C34.8325 10.145 38.8019 14.1143 38.8019 18.9931C38.8019 23.8718 34.8325 27.8412 29.9537 27.8412C25.0744 27.8412 21.1056 23.8718 21.1056 18.9931ZM40.1012 3.36623C44.4206 3.36623 47.935 6.87747 47.935 11.1937C47.935 14.8618 45.3556 17.9718 41.9162 18.7969C41.8281 13.4137 38.1744 8.89185 33.2169 7.48372C34.5575 4.9981 37.1887 3.36623 40.1012 3.36623ZM11.9806 11.1937C11.9806 6.87747 15.4919 3.36623 19.8081 3.36623C22.7206 3.36623 25.355 4.99685 26.7006 7.48123C21.7375 8.8856 18.0787 13.41 17.99 18.7962C14.5556 17.9694 11.9806 14.8606 11.9806 11.1937ZM48.3644 50.8125C47.1119 52.4406 41.7169 54.1925 33.2756 54.5644C23.3212 55.0069 13.8762 53.3081 11.6625 50.7462V45.5793C11.6625 45.5437 11.6612 45.5087 11.6587 45.4737C11.2606 39.6019 15.4356 34.5187 21.4506 33.4225C23.9725 35.1031 26.8975 35.9881 29.9525 35.9881C32.9937 35.9881 35.9075 35.1106 38.4212 33.4437C44.13 34.5837 48.3637 39.6968 48.3637 45.5793L48.3644 50.8125ZM56.5625 39.8419C55.9731 40.5512 54.275 41.4693 51.0887 42.1675C49.6912 36.0706 44.6606 31.1956 38.2875 30.2494C37.8831 30.1881 37.47 30.2906 37.1394 30.5312C35.0412 32.0568 32.5562 32.8631 29.9537 32.8631C27.3431 32.8631 24.8519 32.0525 22.75 30.5181C22.4237 30.28 22.0194 30.1781 21.6175 30.2325C14.9162 31.1462 9.87875 35.9794 8.74812 42.0794C5.31937 41.2862 3.975 40.315 3.46625 39.7731V35.175C3.46625 35.1393 3.465 35.1037 3.4625 35.0681C3.10625 29.8731 6.78937 25.37 12.1081 24.3706C14.3981 25.8825 17.0462 26.6787 19.8081 26.6787C20.1237 26.6787 20.4406 26.6675 20.755 26.6456C22.9531 29.2831 26.2594 30.9662 29.9531 30.9662C33.6469 30.9662 36.9537 29.2831 39.1512 26.6456C39.4669 26.6675 39.7844 26.6787 40.1006 26.6787C42.8575 26.6787 45.4969 25.89 47.7762 24.3906C52.8256 25.4293 56.5619 29.9631 56.5619 35.175L56.5625 39.8419Z" fill="#FF5F00"/>
</svg>
