<svg width="4" height="16" viewBox="0 0 4 16" fill="none" xmlns="http://www.w3.org/2000/svg">
<path d="M2.00002 1.25C2.41424 1.25 2.75002 1.58579 2.75002 2C2.75002 2.41421 2.41424 2.75 2.00002 2.75C1.58581 2.75 1.25002 2.41421 1.25002 2C1.25002 1.58579 1.58581 1.25 2.00002 1.25ZM2.00002 7.25C2.41424 7.25 2.75002 7.58579 2.75002 8C2.75002 8.41421 2.41424 8.75 2.00002 8.75C1.58581 8.75 1.25002 8.41421 1.25002 8C1.25002 7.58579 1.58581 7.25 2.00002 7.25ZM2.00002 13.25C2.41424 13.25 2.75002 13.5858 2.75002 14C2.75002 14.4142 2.41424 14.75 2.00002 14.75C1.58581 14.75 1.25002 14.4142 1.25002 14C1.25002 13.5858 1.58581 13.25 2.00002 13.25Z" fill="#65676B" stroke="#65676B" stroke-width="1.5"/>
</svg>
