<svg width="18" height="14" viewBox="0 0 18 14" fill="none" xmlns="http://www.w3.org/2000/svg">
<path fill-rule="evenodd" clip-rule="evenodd" d="M17.5399 11.8073C17.7615 11.5775 17.8134 11.2326 17.6692 10.9478L16.939 9.50594C15.2788 6.22712 11.9158 4.16048 8.2406 4.16049H7.83675C7.81133 3.60714 7.77847 3.05406 7.73818 2.50138L7.66974 1.56241C7.61444 0.803891 6.76867 0.379871 6.1278 0.789374C4.01209 2.14127 2.17281 3.88321 0.70799 5.92236L0.247806 6.56298C0.0599761 6.82445 0.0599761 7.17664 0.247806 7.43811L0.707992 8.07873C2.17281 10.1179 4.01209 11.8598 6.1278 13.2117C6.76867 13.6212 7.61444 13.1972 7.66974 12.4387L7.73818 11.4997C7.78626 10.8402 7.82376 10.18 7.85066 9.51956C10.0228 9.45589 12.1925 9.89385 14.1864 10.8141L16.6858 11.9676C16.9756 12.1014 17.3183 12.0371 17.5399 11.8073ZM15.3291 9.68942L14.815 9.45216C12.3833 8.32986 9.71528 7.85605 7.06782 8.05939C6.68551 8.08875 6.38691 8.40175 6.37558 8.78502C6.34988 9.65419 6.30541 10.5229 6.24215 11.3907L6.23581 11.4776C4.57301 10.3039 3.11599 8.85982 1.92625 7.2036L1.78038 7.00054L1.92625 6.79749C3.11599 5.14127 4.57301 3.69718 6.23581 2.52347L6.24215 2.61043C6.29861 3.38499 6.34011 4.16037 6.36665 4.93613C6.38047 5.34012 6.71198 5.66049 7.11621 5.66049L8.2406 5.66049C11.1615 5.66048 13.8492 7.20315 15.3291 9.68942Z" fill="#65676B"/>
</svg>
