<svg width="18" height="24" viewBox="0 0 18 24" fill="none" xmlns="http://www.w3.org/2000/svg">
<path d="M14.7695 10.0969C15.318 8.56875 16.8977 4.14844 16.8977 2.73281C16.8977 1.48594 16.1617 0.440625 14.8492 0.440625C12.7586 0.440625 10.8836 6.61406 10.2977 8.08594C9.84297 6.75 7.71485 0 5.83985 0C4.38204 0 3.69766 1.07344 3.69766 2.42344C3.69766 4.07812 5.30079 8.36719 5.88204 10.0172C5.58672 9.90938 5.26797 9.81562 4.94454 9.81562C3.84766 9.81562 2.68047 11.1797 2.68047 12.2812C2.68047 12.6984 2.91016 13.2844 3.05547 13.6734C1.32579 14.1422 0.660161 15.2953 0.660161 17.0344C0.655474 20.4187 3.86172 24 8.3711 24C13.9024 24 17.343 19.8469 17.343 14.4891C17.343 12.4688 17.0195 10.6453 14.7695 10.0969ZM13.1102 5.0625C13.2977 4.48594 14.0992 2.04844 14.8492 2.04844C15.2523 2.04844 15.3602 2.46563 15.3602 2.79844C15.3602 3.69375 13.5508 8.63906 13.1524 9.73594L11.5586 9.45469L13.1102 5.0625ZM5.16954 2.26406C5.16954 1.70625 5.84923 0.121875 7.33985 4.47188L8.96172 9.17344C8.23047 9.1125 7.66329 9.03281 7.30235 9.23906C6.79141 7.88906 5.16954 3.62812 5.16954 2.26406ZM5.06172 11.4375C6.43516 11.4375 8.20704 15.8719 8.20704 16.4719C8.20704 16.7109 7.97735 17.0062 7.71016 17.0062C6.73047 17.0062 4.10547 13.4016 4.10547 12.4266C4.11016 12.0656 4.70079 11.4375 5.06172 11.4375ZM13.7008 20.1703C12.3367 21.6703 10.593 22.4484 8.5586 22.4484C5.77422 22.4484 3.57579 20.9203 2.51641 18.3094C1.71485 16.275 2.69454 15.1078 3.48204 15.1078C4.01641 15.1078 6.02735 17.9344 6.02735 18.5344C6.02735 18.7641 5.66641 18.9234 5.47891 18.9234C4.72422 18.9234 4.42891 18.1969 3.0836 16.5141C1.69141 17.9062 4.04454 20.5875 5.81641 20.5875C7.03985 20.5875 7.83673 19.4531 7.59766 18.6188C7.7711 18.6188 7.98672 18.6328 8.1461 18.5906C8.19766 19.8609 8.57266 21.375 10.1008 21.4828C10.1008 21.4406 10.1945 21.15 10.1945 21.1359C10.1945 20.3203 9.69766 19.6078 9.69766 18.7781C9.69766 17.4516 10.7149 16.1672 11.7461 15.4172C12.1211 15.1359 12.5758 14.9625 13.0164 14.8031C13.4711 14.6297 13.9539 14.4281 14.3008 14.0812C14.2492 13.5562 14.0336 13.0922 13.5086 13.0922C12.2102 13.0922 7.85547 13.2797 7.85547 11.2313C7.85547 10.9172 7.86016 10.6172 8.6711 10.6172C10.1852 10.6172 14.0289 10.9922 15.1539 11.9813C16.0023 12.7359 16.293 17.2875 13.7008 20.1703ZM9.07891 14.2641C9.5336 14.4094 10.0023 14.4516 10.4711 14.5453C10.1242 14.7984 9.81485 15.1078 9.51954 15.4406C9.38829 15.0422 9.22891 14.6531 9.07891 14.2641Z" fill="white"/>
</svg>
