<svg width="22" height="22" viewBox="0 0 22 22" fill="none" xmlns="http://www.w3.org/2000/svg">
<path d="M16.5006 7.99912C15.6054 7.99896 14.7242 8.22056 13.9356 8.64412C13.8635 8.45445 13.7355 8.29118 13.5685 8.17598C13.4015 8.06077 13.2034 7.99909 13.0006 7.99912H9.00055C8.73533 7.99912 8.48098 8.10447 8.29344 8.29201C8.10591 8.47955 8.00055 8.7339 8.00055 8.99912V20.9991C8.00055 21.2643 8.10591 21.5187 8.29344 21.7062C8.48098 21.8938 8.73533 21.9991 9.00055 21.9991H13.0006C13.2658 21.9991 13.5201 21.8938 13.7077 21.7062C13.8952 21.5187 14.0006 21.2643 14.0006 20.9991V15.4991C14.0006 15.2339 14.1059 14.9795 14.2934 14.792C14.481 14.6045 14.7353 14.4991 15.0006 14.4991C15.2658 14.4991 15.5201 14.6045 15.7077 14.792C15.8952 14.9795 16.0006 15.2339 16.0006 15.4991V20.9991C16.0006 21.2643 16.1059 21.5187 16.2934 21.7062C16.481 21.8938 16.7353 21.9991 17.0006 21.9991H21.0006C21.2658 21.9991 21.5201 21.8938 21.7077 21.7062C21.8952 21.5187 22.0006 21.2643 22.0006 20.9991V13.4991C21.9987 12.041 21.4186 10.6431 20.3876 9.61208C19.3565 8.58103 17.9587 8.00097 16.5006 7.99912ZM20.0006 19.9991H18.0006V15.4991C18.0006 14.7035 17.6845 13.9404 17.1219 13.3778C16.5593 12.8152 15.7962 12.4991 15.0006 12.4991C14.2049 12.4991 13.4418 12.8152 12.8792 13.3778C12.3166 13.9404 12.0006 14.7035 12.0006 15.4991V19.9991H10.0006V9.99912H12.0006V10.7021C12.0005 10.9094 12.0648 11.1116 12.1846 11.2807C12.3044 11.4498 12.4738 11.5775 12.6694 11.6462C12.865 11.7148 13.0771 11.721 13.2763 11.6638C13.4756 11.6067 13.6521 11.489 13.7816 11.3271C14.2305 10.7572 14.8462 10.3417 15.5426 10.1387C16.2391 9.93559 16.9816 9.95506 17.6665 10.1944C18.3514 10.4337 18.9444 10.8809 19.3629 11.4735C19.7813 12.0661 20.0042 12.7746 20.0006 13.5001V19.9991ZM6.00055 7.99912H2.00055C1.73533 7.99912 1.48098 8.10447 1.29344 8.29201C1.10591 8.47955 1.00055 8.7339 1.00055 8.99912V20.9991C1.00055 21.2643 1.10591 21.5187 1.29344 21.7062C1.48098 21.8938 1.73533 21.9991 2.00055 21.9991H6.00055C6.26577 21.9991 6.52012 21.8938 6.70766 21.7062C6.89519 21.5187 7.00055 21.2643 7.00055 20.9991V8.99912C7.00055 8.7339 6.89519 8.47955 6.70766 8.29201C6.52012 8.10447 6.26577 7.99912 6.00055 7.99912ZM5.00055 19.9991H3.00055V9.99912H5.00055V19.9991ZM4.01555 0.542117C3.57764 0.515436 3.13889 0.578162 2.72599 0.726475C2.3131 0.874789 1.93472 1.10559 1.61388 1.40481C1.29304 1.70404 1.03646 2.06544 0.859758 2.467C0.683058 2.86857 0.589936 3.30189 0.586063 3.74059C0.582191 4.1793 0.667648 4.6142 0.837231 5.01882C1.00681 5.42344 1.25698 5.78931 1.57248 6.09416C1.88799 6.399 2.26224 6.63644 2.67245 6.79202C3.08266 6.9476 3.52024 7.01806 3.95855 6.99912H3.98655C4.42471 7.02415 4.86337 6.95971 5.27582 6.80973C5.68827 6.65974 6.06586 6.42736 6.38559 6.12673C6.70532 5.8261 6.9605 5.46351 7.13557 5.06108C7.31064 4.65864 7.40195 4.22477 7.40392 3.7859C7.40589 3.34703 7.31849 2.91236 7.14704 2.50837C6.97559 2.10437 6.72368 1.73951 6.40666 1.43602C6.08964 1.13253 5.71415 0.896761 5.30307 0.74308C4.89198 0.589398 4.45391 0.521022 4.01555 0.542117ZM3.98655 4.99912H3.95855C3.78559 5.02023 3.61012 5.00412 3.4439 4.95185C3.27769 4.89959 3.12457 4.81238 2.99482 4.69608C2.86507 4.57978 2.7617 4.43708 2.69163 4.27755C2.62156 4.11802 2.58641 3.94534 2.58855 3.77112C2.58855 3.02412 3.14855 2.54212 4.01555 2.54212C4.19016 2.51914 4.36767 2.5338 4.53614 2.58512C4.70462 2.63644 4.86015 2.72323 4.9923 2.83965C5.12445 2.95607 5.23015 3.09943 5.30229 3.26009C5.37443 3.42076 5.41134 3.595 5.41055 3.77112C5.41055 4.51712 4.85155 4.99912 3.98655 4.99912Z" fill="white"/>
</svg>
