<svg width="23" height="20" viewBox="0 0 23 20" fill="none" xmlns="http://www.w3.org/2000/svg">
<path d="M22.9916 1.94964C22.9916 1.77313 22.9448 1.59978 22.8561 1.44719C22.7674 1.2946 22.6399 1.16821 22.4865 1.08086C22.3331 0.993509 22.1594 0.948308 21.9829 0.94985C21.8064 0.951391 21.6334 0.99962 21.4816 1.08964C20.896 1.43845 20.2655 1.70559 19.6076 1.88364C18.6686 1.07791 17.4709 0.637047 16.2336 0.641637C14.8763 0.643264 13.5728 1.17227 12.5983 2.11696C11.6237 3.06165 11.0544 4.34808 11.0106 5.70464C8.3344 5.27796 5.90887 3.88117 4.1966 1.78064C4.09343 1.65561 3.96173 1.55719 3.81259 1.49367C3.66345 1.43016 3.50124 1.40339 3.3396 1.41564C3.178 1.42901 3.02208 1.48152 2.88532 1.56864C2.74855 1.65575 2.63504 1.77484 2.5546 1.91564C2.14212 2.63553 1.90524 3.44256 1.86319 4.27119C1.82114 5.09982 1.97511 5.92668 2.3126 6.68464L2.3106 6.68564C2.15859 6.77905 2.03313 6.90996 1.94627 7.06581C1.85942 7.22166 1.81408 7.39722 1.8146 7.57564C1.813 7.72243 1.82202 7.86915 1.8416 8.01464C1.94372 9.27269 2.50123 10.4503 3.4096 11.3266C3.34796 11.4441 3.31037 11.5728 3.29904 11.705C3.28771 11.8372 3.30286 11.9703 3.3436 12.0966C3.73958 13.3308 4.58186 14.3728 5.7056 15.0186C4.56377 15.4601 3.3309 15.6139 2.1156 15.4666C1.89077 15.4387 1.66311 15.4879 1.46991 15.6062C1.2767 15.7245 1.12941 15.905 1.05214 16.1179C0.974873 16.3309 0.972218 16.5638 1.04461 16.7785C1.117 16.9932 1.26014 17.1769 1.4506 17.2996C3.54081 18.6457 5.97448 19.3612 8.4606 19.3606C11.2798 19.3924 14.0305 18.4915 16.2848 16.7982C18.5391 15.1049 20.1707 12.7141 20.9256 9.99764C21.2786 8.8144 21.4588 7.58639 21.4606 6.35164L21.4596 6.15164C21.9818 5.58844 22.3862 4.92667 22.6493 4.20511C22.9124 3.48356 23.0287 2.71675 22.9916 1.94964ZM19.6856 5.16164C19.5203 5.35685 19.4365 5.60826 19.4516 5.86364C19.4616 6.02864 19.4606 6.19464 19.4606 6.35164C19.4585 7.39482 19.3056 8.43221 19.0066 9.43164C18.3903 11.7433 17.016 13.7812 15.1039 15.219C13.1918 16.6568 10.8525 17.4113 8.4606 17.3616C7.60173 17.3618 6.74583 17.2607 5.9106 17.0606C6.97591 16.7171 7.97196 16.1876 8.8526 15.4966C9.01499 15.369 9.13385 15.1941 9.19287 14.9962C9.25188 14.7982 9.24813 14.5868 9.18215 14.3911C9.11617 14.1954 8.9912 14.0248 8.82439 13.903C8.65759 13.7812 8.45714 13.714 8.2506 13.7106C7.41932 13.6976 6.62556 13.3624 6.0366 12.7756C6.18593 12.7476 6.33427 12.7126 6.4816 12.6706C6.69763 12.6092 6.88669 12.4769 7.01834 12.2949C7.14998 12.113 7.21655 11.892 7.20731 11.6676C7.19807 11.4432 7.11357 11.2285 6.96741 11.0579C6.82125 10.8874 6.62194 10.7711 6.4016 10.7276C5.91909 10.6323 5.46507 10.427 5.07483 10.1277C4.68459 9.82831 4.36866 9.44298 4.1516 9.00164C4.33235 9.02634 4.51426 9.04169 4.6966 9.04764C4.91328 9.0512 5.12547 8.98566 5.30239 8.86052C5.47932 8.73538 5.61179 8.55713 5.6806 8.35164C5.74665 8.1444 5.74333 7.92128 5.67115 7.7161C5.59897 7.51092 5.46186 7.33487 5.2806 7.21464C4.84054 6.9217 4.48001 6.52418 4.23131 6.05768C3.98262 5.59118 3.85353 5.07028 3.8556 4.54164C3.8556 4.47564 3.8576 4.40864 3.8616 4.34364C6.10306 6.43427 9.01051 7.66666 12.0716 7.82364C12.2262 7.8295 12.38 7.80014 12.5216 7.73777C12.6631 7.6754 12.7886 7.58166 12.8886 7.46364C12.9876 7.34489 13.0578 7.20479 13.0935 7.05435C13.1293 6.90392 13.1296 6.74724 13.0946 6.59664C13.0373 6.35785 13.0082 6.11319 13.0076 5.86764C13.0087 5.01237 13.3489 4.19244 13.9536 3.58768C14.5584 2.98292 15.3783 2.6427 16.2336 2.64164C16.6737 2.64034 17.1094 2.73031 17.513 2.90587C17.9166 3.08143 18.2795 3.33877 18.5786 3.66164C18.6939 3.78576 18.8391 3.8783 19.0003 3.93046C19.1615 3.98262 19.3334 3.99267 19.4996 3.95964C19.9104 3.87978 20.3153 3.77221 20.7116 3.63764C20.4414 4.19046 20.0961 4.70331 19.6856 5.16164Z" fill="white"/>
</svg>
