<svg width="21" height="22" viewBox="0 0 21 22" fill="none" xmlns="http://www.w3.org/2000/svg">
<path d="M19.9331 6.04721C20.1487 5.27881 20.2081 4.47498 20.1078 3.68323C20.0075 2.89148 19.7495 2.12787 19.3491 1.43752C19.2503 1.26653 19.1084 1.12454 18.9374 1.0258C18.7664 0.927062 18.5724 0.875062 18.375 0.875024C17.4746 0.872489 16.5853 1.07356 15.7736 1.46318C14.9618 1.85281 14.2487 2.42092 13.6875 3.12502H11.8125C11.2513 2.42092 10.5382 1.85281 9.72643 1.46318C8.91471 1.07356 8.02539 0.872489 7.125 0.875024C6.92756 0.875062 6.7336 0.927062 6.56262 1.0258C6.39164 1.12454 6.24966 1.26653 6.15094 1.43752C5.7505 2.12787 5.49251 2.89148 5.39219 3.68323C5.29187 4.47498 5.35127 5.27881 5.56687 6.04721C5.11846 6.87792 4.88088 7.80603 4.875 8.75002V9.50002C4.87676 10.7591 5.30022 11.9814 6.0778 12.9717C6.85537 13.962 7.94225 14.6633 9.165 14.9638C8.81042 15.5838 8.62426 16.2858 8.625 17V17.375H7.125C6.62772 17.375 6.15081 17.1775 5.79917 16.8258C5.44754 16.4742 5.25 15.9973 5.25 15.5C5.24876 14.4064 4.81376 13.3579 4.04045 12.5846C3.26713 11.8113 2.21864 11.3763 1.125 11.375C0.826631 11.375 0.540483 11.4936 0.329505 11.7045C0.118526 11.9155 0 12.2017 0 12.5C0 12.7984 0.118526 13.0845 0.329505 13.2955C0.540483 13.5065 0.826631 13.625 1.125 13.625C1.62228 13.625 2.09919 13.8226 2.45083 14.1742C2.80246 14.5258 3 15.0027 3 15.5C3.00124 16.5937 3.43624 17.6422 4.20955 18.4155C4.98287 19.1888 6.03136 19.6238 7.125 19.625H8.625V20.75C8.625 21.0484 8.74353 21.3345 8.9545 21.5455C9.16548 21.7565 9.45163 21.875 9.75 21.875C10.0484 21.875 10.3345 21.7565 10.5455 21.5455C10.7565 21.3345 10.875 21.0484 10.875 20.75V17C10.875 16.5027 11.0725 16.0258 11.4242 15.6742C11.7758 15.3226 12.2527 15.125 12.75 15.125C13.2473 15.125 13.7242 15.3226 14.0758 15.6742C14.4275 16.0258 14.625 16.5027 14.625 17V20.75C14.625 21.0484 14.7435 21.3345 14.9545 21.5455C15.1655 21.7565 15.4516 21.875 15.75 21.875C16.0484 21.875 16.3345 21.7565 16.5455 21.5455C16.7565 21.3345 16.875 21.0484 16.875 20.75V17C16.8757 16.2858 16.6896 15.5838 16.335 14.9638C17.5577 14.6633 18.6446 13.962 19.4222 12.9717C20.1998 11.9814 20.6232 10.7591 20.625 9.50002V8.75002C20.6191 7.80603 20.3815 6.87792 19.9331 6.04721ZM18.375 9.50002C18.375 10.3951 18.0194 11.2536 17.3865 11.8865C16.7535 12.5194 15.8951 12.875 15 12.875H10.5C9.60489 12.875 8.74645 12.5194 8.11351 11.8865C7.48058 11.2536 7.125 10.3951 7.125 9.50002V8.75002C7.13461 8.07962 7.33386 7.42565 7.69969 6.86377C7.8163 6.7128 7.89134 6.53391 7.91732 6.34492C7.94331 6.15593 7.91935 5.96343 7.84781 5.78659C7.5251 4.95266 7.5118 4.03072 7.81031 3.18784C8.31553 3.28091 8.79614 3.47713 9.22214 3.76425C9.64814 4.05137 10.0104 4.42322 10.2863 4.85659C10.388 5.01546 10.528 5.1462 10.6934 5.2368C10.8589 5.32739 11.0445 5.37492 11.2331 5.37502H14.2659C14.4547 5.37508 14.6405 5.32762 14.8061 5.23702C14.9718 5.14642 15.112 5.01559 15.2137 4.85659C15.4895 4.42311 15.8517 4.05117 16.2777 3.76404C16.7037 3.47691 17.1844 3.28075 17.6897 3.18784C17.9882 4.03072 17.9749 4.95266 17.6522 5.78659C17.5835 5.96476 17.5614 6.15748 17.5878 6.34658C17.6142 6.53569 17.6883 6.71496 17.8031 6.86752C18.1674 7.42858 18.3656 8.08116 18.375 8.75002V9.50002Z" fill="white"/>
</svg>
