<svg width="28" height="28" viewBox="0 0 28 28" fill="none" xmlns="http://www.w3.org/2000/svg">
<g clip-path="url(#clip0_205_62)">
<path d="M14.6924 13.3082C14.4786 13.0944 14.1324 13.0944 13.9186 13.3082C13.7053 13.5215 13.7053 13.8677 13.9186 14.0815C14.1324 14.2948 14.4786 14.2948 14.6924 14.0815C14.9057 13.8677 14.9057 13.5215 14.6924 13.3082Z" fill="white"/>
<path d="M21.6525 6.34757C20.584 5.27903 18.8541 5.27897 17.7854 6.34757C16.7196 7.41337 16.7196 9.14805 17.7856 10.2147C18.8518 11.2803 20.5865 11.2807 21.6525 10.2146C22.721 9.14614 22.7212 7.41621 21.6525 6.34757ZM20.8792 9.44118C20.2397 10.0807 19.1988 10.0807 18.559 9.44129C17.9194 8.80134 17.9194 7.76042 18.5589 7.12096C19.2 6.47986 20.2379 6.47975 20.8792 7.12096C21.5203 7.762 21.5204 8.80002 20.8792 9.44118Z" fill="white"/>
<path d="M27.8397 0.160185C27.7323 0.0528334 27.5857 -0.005354 27.4334 0.000388171C27.3097 0.00481785 24.3656 0.123161 20.8659 1.36014C18.0616 2.35031 15.7241 3.76797 13.9183 5.57374C13.5137 5.97838 13.1199 6.40745 12.7432 6.85321C10.9578 5.80223 9.52704 6.13177 8.62256 6.61581C6.54001 7.73034 5.25098 10.7565 5.25098 12.9211C5.25114 13.1422 5.38441 13.3417 5.58873 13.4263C5.65637 13.4543 5.72747 13.4679 5.79791 13.4679C5.94026 13.4679 6.08009 13.4123 6.18471 13.3077C7.283 12.2095 8.63766 12.2781 9.08019 12.3363L9.2717 12.5278C8.8948 13.4247 8.59117 14.3166 8.36849 15.184C8.2881 15.4979 8.31522 15.83 8.43471 16.1339C7.90818 16.3765 7.40019 16.7328 6.95788 17.1751C5.55017 18.5829 5.26432 22.0137 5.25284 22.159C5.24026 22.3185 5.29812 22.4756 5.41127 22.5887C5.51424 22.6917 5.65353 22.7489 5.79791 22.7489C5.81223 22.7489 5.82662 22.7484 5.841 22.7472C5.98636 22.7358 9.41723 22.4499 10.8249 21.0422C11.2671 20.6001 11.6233 20.0922 11.866 19.5657C12.1876 19.6922 12.5187 19.7078 12.8164 19.6315C13.6834 19.4089 14.5752 19.1054 15.4722 18.7284L15.6637 18.9199C15.7218 19.3625 15.7905 20.7172 14.6923 21.8154C14.5359 21.9718 14.4891 22.207 14.5738 22.4113C14.6584 22.6157 14.8577 22.7489 15.079 22.7489C17.2435 22.7489 20.2696 21.4598 21.3841 19.3773C21.8682 18.4729 22.1977 17.0422 21.1467 15.2567C21.5923 14.8801 22.0214 14.4864 22.4262 14.0816C24.232 12.2758 25.6496 9.93829 26.6398 7.13414C27.8768 3.63426 27.9951 0.690106 27.9995 0.566512C28.005 0.414755 27.9471 0.267591 27.8397 0.160185ZM6.47368 11.7448C6.8134 10.1007 7.80012 8.29663 9.13887 7.58012C10.0335 7.10138 11.0114 7.1483 12.0511 7.71744C11.1653 8.88239 10.3953 10.1375 9.75339 11.4628C9.74524 11.4578 9.6468 11.334 9.46393 11.2928C9.38873 11.2758 7.94176 10.9646 6.47368 11.7448ZM10.0515 20.2688C9.29959 21.0207 7.53565 21.4173 6.42074 21.5793C6.58272 20.4643 6.97937 18.7004 7.73127 17.9485C8.15236 17.5274 8.64061 17.2082 9.13138 17.0283L10.9717 18.8687C10.7919 19.3595 10.4727 19.8477 10.0515 20.2688ZM12.5447 18.572C12.3865 18.6125 12.2032 18.553 12.0669 18.417C11.3594 17.7095 11.0826 17.4327 10.9958 17.3459C10.8365 17.1867 10.446 16.7961 9.58342 15.9335C9.44703 15.7968 9.38753 15.6136 9.42795 15.4556C9.60311 14.7734 9.83219 14.0735 10.1108 13.3669L14.6331 17.8893C13.9264 18.1679 13.2266 18.397 12.5447 18.572ZM20.4199 18.8612C19.7034 20.1999 17.8994 21.1867 16.2554 21.5263C16.7796 20.5399 16.8951 19.2843 16.7036 18.5228C16.6591 18.346 16.5438 18.2571 16.5373 18.2466C17.8625 17.6048 19.1176 16.8347 20.2826 15.9489C20.8518 16.9888 20.8986 17.9667 20.4199 18.8612ZM21.6529 13.3082C21.1601 13.8009 20.6295 14.277 20.0757 14.7231C18.7445 15.7949 17.2794 16.7028 15.7162 17.4256L10.5745 12.284C11.2972 10.7207 12.2051 9.25552 13.2769 7.92448C13.7234 7.37033 14.1994 6.83965 14.6919 6.34713C16.312 4.72696 18.403 3.43755 20.9083 2.50939L25.4907 7.09176C24.5626 9.59704 23.2732 11.688 21.6529 13.3082ZM25.8841 5.93835L22.0617 2.11592C24.1443 1.46907 25.956 1.22686 26.8603 1.1398C26.7732 2.04427 26.5309 3.85601 25.8841 5.93835Z" fill="white"/>
<path d="M13.1453 22.5886C12.9316 22.375 12.5853 22.3751 12.3718 22.5887L10.8253 24.1358C10.6118 24.3494 10.6118 24.6957 10.8254 24.9092C11.039 25.1227 11.3853 25.1227 11.5988 24.9091L13.1454 23.362C13.3589 23.1484 13.3588 22.8021 13.1453 22.5886Z" fill="white"/>
<path d="M5.41153 14.8548C5.19803 14.6412 4.8518 14.6412 4.63814 14.8547L3.09103 16.4013C2.87742 16.6147 2.87737 16.961 3.09087 17.1746C3.30431 17.3881 3.65054 17.3884 3.86426 17.1747L5.41137 15.6282C5.62497 15.4147 5.62503 15.0684 5.41153 14.8548Z" fill="white"/>
<path d="M9.27842 23.3624C9.06497 23.1489 8.71864 23.1489 8.50503 23.3624L4.8005 27.0664C4.58689 27.2799 4.58689 27.6262 4.80045 27.8398C5.01389 28.0533 5.36023 28.0534 5.57384 27.8398L9.27836 24.1358C9.49197 23.9223 9.49197 23.576 9.27842 23.3624Z" fill="white"/>
<path d="M4.90345 23.3624C4.68995 23.1489 4.34361 23.1489 4.13006 23.3624L0.425533 27.0664C0.211924 27.2799 0.211924 27.6262 0.425479 27.8398C0.638924 28.0533 0.985259 28.0534 1.19887 27.8398L4.90339 24.1358C5.117 23.9223 5.117 23.576 4.90345 23.3624Z" fill="white"/>
<path d="M4.63762 18.7215C4.42412 18.508 4.07778 18.508 3.86423 18.7216L0.16025 22.4261C-0.0533038 22.6397 -0.0533038 22.9859 0.160305 23.1995C0.373859 23.4131 0.72014 23.4131 0.933694 23.1995L4.63767 19.495C4.85123 19.2814 4.85123 18.9351 4.63762 18.7215Z" fill="white"/>
<path d="M17.0123 10.9877C16.7987 10.7741 16.4525 10.7741 16.2389 10.9877L15.4656 11.761C15.252 11.9745 15.252 12.3208 15.4656 12.5344C15.6792 12.748 16.0254 12.748 16.239 12.5344L17.0123 11.7611C17.2259 11.5476 17.2259 11.2013 17.0123 10.9877Z" fill="white"/>
</g>
<defs>
<clipPath id="clip0_205_62">
<rect width="28" height="28" fill="white"/>
</clipPath>
</defs>
</svg>
