<svg width="28" height="28" viewBox="0 0 28 28" fill="none" xmlns="http://www.w3.org/2000/svg">
<path d="M6.272 18.144C5.936 18.144 5.712 18.368 5.712 18.704V25.256C5.712 26.432 6.664 27.44 7.896 27.44H18.76C19.936 27.44 20.944 26.488 20.944 25.256V23.184C20.944 22.848 20.72 22.624 20.384 22.624C20.048 22.624 19.824 22.848 19.824 23.184V25.256C19.824 25.816 19.376 26.32 18.76 26.32H7.896C7.336 26.32 6.832 25.872 6.832 25.256V18.704C6.832 18.424 6.608 18.144 6.272 18.144Z" fill="white"/>
<path d="M18.76 0.560059H7.896C6.72 0.560059 5.712 1.51206 5.712 2.68806V6.16006C5.712 6.49606 5.936 6.72006 6.272 6.72006C6.608 6.72006 6.832 6.49606 6.832 6.16006V2.68806C6.832 2.12806 7.28 1.68006 7.896 1.68006H9.744V2.35206C9.744 3.13606 10.416 3.80806 11.2 3.80806H15.512C16.296 3.80806 16.968 3.13606 16.968 2.35206V1.68006H18.816C19.376 1.68006 19.88 2.12806 19.88 2.68806V4.03206C19.88 4.36806 20.104 4.59206 20.44 4.59206C20.776 4.59206 21 4.36806 21 4.03206V2.68806C20.944 1.51206 19.936 0.560059 18.76 0.560059ZM15.792 2.35206C15.792 2.52006 15.624 2.68806 15.456 2.68806H11.2C11.032 2.68806 10.864 2.52006 10.864 2.35206V1.68006H15.848V2.35206H15.792Z" fill="white"/>
<path d="M14.952 23.6881C14.952 22.7921 14.224 22.0641 13.328 22.0641C12.432 22.0641 11.704 22.7921 11.704 23.6881C11.704 24.5841 12.432 25.3121 13.328 25.3121C14.224 25.3121 14.952 24.5841 14.952 23.6881ZM12.824 23.6881C12.824 23.4081 13.048 23.1841 13.328 23.1841C13.608 23.1841 13.832 23.4081 13.832 23.6881C13.832 23.9681 13.608 24.1921 13.328 24.1921C13.048 24.1921 12.824 23.9681 12.824 23.6881Z" fill="white"/>
<path d="M0.615997 9.07203V15.512C0.615997 16.24 1.232 16.856 1.96 16.856C2.072 16.856 2.184 16.968 2.184 17.08V18.2C2.184 18.648 2.464 19.04 2.856 19.208C3.304 19.376 3.752 19.264 4.032 18.928L5.768 16.968C5.824 16.912 5.88 16.912 5.936 16.912H9.856C10.584 16.912 11.2 16.296 11.2 15.568V9.07203C11.2 8.34403 10.584 7.72803 9.856 7.72803H1.96C1.176 7.72803 0.615997 8.34403 0.615997 9.07203ZM10.024 9.07203V15.512C10.024 15.624 9.912 15.736 9.8 15.736H5.88C5.488 15.736 5.152 15.904 4.872 16.184L3.248 18.088V17.08C3.248 16.352 2.632 15.736 1.904 15.736C1.792 15.736 1.68 15.624 1.68 15.512V9.07203C1.68 8.96003 1.792 8.84803 1.904 8.84803H9.8C9.912 8.84803 10.024 8.96003 10.024 9.07203Z" fill="white"/>
<path d="M4.536 14.5041C4.648 14.5041 4.76 14.4481 4.816 14.3921L7.448 12.7681C7.616 12.6561 7.728 12.4881 7.728 12.3201C7.728 12.1521 7.616 11.9281 7.448 11.8721L4.816 10.2481C4.648 10.1361 4.424 10.1361 4.256 10.2481C4.088 10.3601 3.976 10.5281 3.976 10.7521V14.0561C3.976 14.2241 4.256 14.5041 4.536 14.5041ZM5.096 11.6481L6.104 12.2641L5.096 12.8801V11.6481Z" fill="white"/>
<path d="M25.984 9.12805C25.2 8.06405 23.856 7.67205 22.68 8.17605L21.224 6.10405C21.112 5.93605 20.888 5.82405 20.664 5.88005C20.44 5.93605 20.272 6.10405 20.216 6.27205C19.544 9.01605 18.48 12.264 16.072 13.44C16.016 13.44 16.016 13.44 15.96 13.44C15.624 13.384 15.344 13.44 15.064 13.664L13.888 14.504C13.328 14.896 13.216 15.624 13.608 16.184L13.72 16.296L13.048 16.8C12.432 17.248 12.32 18.032 12.768 18.648C13.216 19.264 14 19.376 14.616 18.928L15.288 18.424L15.4 18.536C15.624 18.872 16.016 19.04 16.408 19.04H16.576L18.256 21.392C18.648 21.952 19.488 22.12 20.048 21.672C20.608 21.28 20.776 20.44 20.328 19.88L18.648 17.528C18.704 17.416 18.76 17.304 18.76 17.192C18.76 17.136 18.76 17.136 18.76 17.08C20.664 15.176 24.08 15.232 26.824 15.456C27.048 15.456 27.272 15.344 27.384 15.176C27.496 15.008 27.496 14.728 27.328 14.56L25.872 12.488C26.656 11.592 26.768 10.192 25.984 9.12805ZM14.56 15.344L15.736 14.504C15.792 14.448 15.848 14.504 15.848 14.504L17.584 16.912V17.024C17.528 17.08 16.296 17.92 16.408 17.864C16.352 17.92 16.296 17.864 16.296 17.864C16.24 17.808 14.896 15.904 15.008 16.016C14.952 15.96 14.56 15.344 14.56 15.4C14.504 15.456 14.504 15.4 14.56 15.344ZM13.888 17.976C13.776 18.032 13.664 18.032 13.608 17.92C13.552 17.808 13.552 17.696 13.664 17.64L14.336 17.136L14.56 17.472L13.888 17.976ZM19.32 20.776C19.264 20.832 19.152 20.832 19.096 20.72L17.528 18.48L17.696 18.368L17.864 18.256L19.432 20.496C19.432 20.664 19.376 20.72 19.32 20.776ZM18.256 16.016L16.968 14.224C19.152 12.936 20.272 10.248 21 7.78405C21.504 8.51205 24.584 12.824 24.64 12.88L25.704 14.392C23.072 14.168 20.216 14.336 18.256 16.016ZM23.352 9.12805C23.968 8.96005 24.64 9.24005 25.032 9.80005C25.424 10.36 25.424 11.088 25.088 11.592L23.352 9.12805Z" fill="white"/>
</svg>
