<svg width="54" height="50" viewBox="0 0 54 50" fill="none" xmlns="http://www.w3.org/2000/svg">
<path fill-rule="evenodd" clip-rule="evenodd" d="M26.0057 41.5901C26.3256 41.782 26.6676 41.8669 27 41.8628C27.3324 41.8669 27.6744 41.782 27.9943 41.5901L30.8325 39.8871C36.3987 36.5474 43.2062 36.0019 49.2332 38.4127C51.4565 39.3021 53.875 37.6647 53.875 35.2701V6.12289C53.875 4.67802 52.9953 3.37871 51.6538 2.8421C43.8911 -0.262991 35.1231 0.439565 27.9538 4.74111L27 5.31341L26.0462 4.74111C18.8769 0.439565 10.1089 -0.262991 2.3462 2.8421C1.00467 3.37871 0.125 4.67802 0.125 6.12289V35.2701C0.125 37.6647 2.54348 39.3021 4.76679 38.4127C10.7938 36.0019 17.6013 36.5474 23.1675 39.8871L26.0057 41.5901ZM3.875 6.26995V34.7369C10.8645 32.1168 18.6795 32.8211 25.0969 36.6715L25.125 36.6884V8.56162L24.1168 7.95671C17.9944 4.28323 10.5158 3.66239 3.875 6.26995ZM28.9031 36.6715L28.875 36.6884V8.56162L29.8832 7.95671C36.0056 4.28323 43.4842 3.66239 50.125 6.26995V34.7369C43.1355 32.1168 35.3205 32.8211 28.9031 36.6715Z" fill="#FF5F00"/>
<path d="M20.1879 42.6056C15.1283 39.6541 8.87174 39.6542 3.8121 42.6056L3.55524 42.7554C2.66077 43.2772 2.35864 44.4253 2.88041 45.3198C3.40219 46.2143 4.55029 46.5164 5.44476 45.9946L5.70161 45.8448C9.59365 43.5744 14.4064 43.5744 18.2984 45.8448L21.0165 47.4304C24.714 49.5872 29.286 49.5872 32.9835 47.4304L35.7016 45.8448C39.5936 43.5744 44.4064 43.5744 48.2984 45.8448L48.5552 45.9946C49.4497 46.5164 50.5978 46.2143 51.1196 45.3198C51.6414 44.4253 51.3392 43.2772 50.4448 42.7554L50.1879 42.6056C45.1283 39.6542 38.8717 39.6541 33.8121 42.6056L31.094 44.1912C28.5641 45.6669 25.4359 45.6669 22.906 44.1912L20.1879 42.6056Z" fill="#FF5F00"/>
</svg>
